<?xml version="1.0" encoding="UTF-8" standalone="no"?>
<svg
   xmlns:dc="http://purl.org/dc/elements/1.1/"
   xmlns:cc="http://creativecommons.org/ns#"
   xmlns:rdf="http://www.w3.org/1999/02/22-rdf-syntax-ns#"
   xmlns:svg="http://www.w3.org/2000/svg"
   xmlns="http://www.w3.org/2000/svg"
   xmlns:sodipodi="http://sodipodi.sourceforge.net/DTD/sodipodi-0.dtd"
   xmlns:inkscape="http://www.inkscape.org/namespaces/inkscape"
   width="128.48759mm"
   height="58.725227mm"
   viewBox="0 0 187.21325 85.565782"
   version="1.1"
   id="svg44"
   sodipodi:docname="msf-medecins-sans-frontieres.svg"
   inkscape:version="1.0.2 (e86c8708, 2021-01-15)">
  <metadata
     id="metadata50">
    <rdf:RDF>
      <cc:Work
         rdf:about="">
        <dc:format>image/svg+xml</dc:format>
        <dc:type
           rdf:resource="http://purl.org/dc/dcmitype/StillImage" />
        <dc:title></dc:title>
      </cc:Work>
    </rdf:RDF>
  </metadata>
  <defs
     id="defs48" />
  <sodipodi:namedview
     pagecolor="#ffffff"
     bordercolor="#666666"
     borderopacity="1"
     objecttolerance="10"
     gridtolerance="10"
     guidetolerance="10"
     inkscape:pageopacity="0"
     inkscape:pageshadow="2"
     inkscape:window-width="1209"
     inkscape:window-height="735"
     id="namedview46"
     showgrid="false"
     inkscape:zoom="0.3312923"
     inkscape:cx="803.63882"
     inkscape:cy="469.06912"
     inkscape:window-x="0"
     inkscape:window-y="23"
     inkscape:window-maximized="0"
     inkscape:current-layer="svg44"
     fit-margin-top="0"
     fit-margin-left="0"
     fit-margin-right="0"
     fit-margin-bottom="0"
     inkscape:document-rotation="0"
     units="mm" />
  <path
     d="m 66.163407,68.637844 c 0.009,-0.021 -0.168,-0.361 -0.225,-0.502 -0.065,-0.16 -0.06,-0.568 -0.04,-0.658 0.024,-0.111 -0.018,-0.115 -0.061,-0.24 -0.015,-0.043 0.032,-0.314 0.022,-0.447 -0.005,-0.059 -0.228,-0.504 -0.245,-0.594 -0.017,-0.086 0.014,-0.297 0,-0.445 a 0.88,0.88 0 0 0 -0.056,-0.223 l -0.936,-2.83 -0.392,-1.264 c -0.033,-0.105 -0.642,-1.098 -0.678,-1.209 -0.667,-2.023 -2.757,-5.393 -4.892,-6.738 -0.07,-0.045 -0.649,-0.748 -0.742,-0.816 -0.122,-0.092 -0.484,-0.256 -0.539,-0.309 -0.163,-0.154 -0.284,-0.441 -0.539,-0.379 a 0.218,0.218 0 0 0 -0.13,0.09 c -0.054,0.068 -0.684,1.645 -0.791,1.838 -0.114,0.203 -0.264,0.41 -0.323,0.545 a 4.027,4.027 0 0 0 -0.189,0.725 c -0.618,2.488 -5.27,10.438 -6.451,12.664 l -4.413,8.311 c -0.811,1.289 -0.726,-0.037 -1.014,-0.168 -0.394,-0.176 -0.309,0.127 -0.535,0.291 -0.279,0.199 -0.966,0.332 -1.248,0.322 -0.042,-0.002 -0.506,0.252 -0.631,0.289 -0.146,0.043 -0.273,0.014 -0.283,-0.145 -0.003,-0.068 0.054,-0.26 0.067,-0.367 0.011,-0.094 -0.022,-0.156 -0.089,-0.223 -0.095,-0.096 -0.131,-0.035 -0.312,0.055 -0.171,0.086 -0.19,0.014 -0.312,-0.156 -0.132,-0.182 -1.6,-0.516 -1.761,-0.445 -0.212,0.094 -0.588,0.447 -0.747,0.234 -0.062,-0.082 -0.038,-0.293 -0.067,-0.445 a 0.29,0.29 0 0 0 -0.252,-0.246 c -0.251,-0.012 -0.457,0.107 -0.505,0 -0.08,-0.172 0,-0.27 -0.1,-0.344 -0.048,-0.035 -0.376,-0.121 -0.424,-0.156 -0.129,-0.096 -0.126,-0.223 -0.268,-0.289 a 0.23,0.23 0 0 0 -0.089,-0.023 c -0.318,-0.027 -0.483,0.066 -0.644,-0.025 -0.185,-0.105 -0.298,-0.35 -0.37,-0.631 -0.056,-0.221 -0.105,-0.775 -0.133,-0.824 -0.021,-0.035 -0.08,-0.059 -0.123,-0.068 -0.104,-0.018 -0.318,0.078 -0.424,0.123 -0.185,0.078 -5.714,3.178 -5.883,3.297 -0.589,0.42 -0.799,0.635 -0.869,1.305 -0.193,1.859 0.733,7.295 3.298,8.008 0.342,0.096 0.553,0.006 0.869,-0.133 l 25.404,-12.432 c 0.861,-0.43 8.271,-3.92 8.468,-3.988 0.103,-0.036 0.584,-0.307 0.597,-0.335 z m -44.828,-5.603 c 0.009,-0.002 0.001,0.02 -0.009,0.033 -0.019,0.027 -0.053,0.041 -0.084,0.049 -0.1,0.027 -14.3939996,7.607 -15.5679996,8.199 l -4.72900003,2.668 c -0.56,0.322 -0.891,0.852 -0.936,1.494 -0.126,1.947 1.03400003,4.641 2.26200003,6.291 0.335,0.451 1.102,1.443 1.75,1.615 0.335,0.09 0.599,0 0.892,-0.088 0.148,-0.047 14.7229996,-6.875 16.5679996,-7.766 4.766,-2.096 8.797,-3.85 13.583,-5.902 0.252,-0.105 0.322,-0.148 0.379,-0.367 0.07,-0.273 0.154,-0.848 0.211,-1.014 0.047,-0.139 0.229,-0.461 0.357,-0.713 0.102,-0.203 0.465,-1.266 0.712,-1.85 0.085,-0.201 0.175,-0.383 0.246,-0.58 0.114,-0.318 0.221,-0.857 0.323,-1.135 l 5.192,-12.955 2.519,-6.115 c 0.379,-1.201 0.334,-1.529 1.014,-2.674 0.106,-0.179 0.919,-2.742 0.947,-2.941 0.051,-0.358 0.388,-0.784 0.037,-0.868 -0.159,-0.038 -0.484,0.051 -0.661,0.111 -0.47,0.174 -0.86,0.336 -1.315,0.546 -13.751,6.384 -25.188,12.152 -38.4969996,19.416 -0.922,0.52 -1.69,0.975 -2.588,1.537 a 1.79,1.79 0 0 0 -0.921,1.701 c 0.172,2.314 0.729,4.246 1.816,6.295 0.387,0.684 0.888,0.619 1.682,0.414 0.173,-0.047 3.8209996,-1.492 5.0589996,-2.006 l 9.549,-3.354 a 1.2,1.2 0 0 1 0.21,-0.041 z m 49.94,-16.02 c -0.043,0.174 0.43,0.635 0.54,0.742 0.328,0.318 0.842,0.768 0.983,0.932 1.371,1.648 2.292,3.244 3.032,5.256 0.007,0.021 15.168,-0.244 15.265,-0.268 7.403,-2.527 13.743003,-4.4 21.329003,-6.305 0.332,-0.121 0.555,-0.195 0.67,-0.469 1.068,-2.541 -0.08,-7.566 -1.428,-9.757 -0.389,-0.634 -0.834,-0.628 -1.615,-0.446 -1.48,0.347 -10.738003,2.327 -13.080003,2.863 -8.334,1.979 -15.304,3.93 -23.456,6.561 -0.568,0.18 -2.192,0.7 -2.24,0.891 z m -13.104,-12.593 c -0.062,0.164 0.073,0.303 0.156,0.375 0.125,0.11 2.244,1.458 2.44,1.615 0.144,0.114 0.257,0.22 0.379,0.356 0.625,0.699 0.634,0.909 1.192,1.314 0.604,0.439 0.337,0.245 0.902,0.865 0.182,0.199 1.047,0.942 1.204,1.118 0.224,0.251 0.241,0.299 0.49,0.446 0.08,0.048 3.879,3.811 3.944,3.899 0.305,0.412 0.683,1.184 1.134,1.137 0.065,-0.008 9.554,-4.624 10.075,-4.902 a 394.413,394.413 0 0 1 6.853,-3.197 c 3.862,-1.707 11.154,-4.994 11.9,-5.302 0.686,-0.283 1.047,-0.487 1.002,-1.166 -0.123,-1.944 -2.426,-7.72 -4.344,-8.871 -0.471,-0.282 -0.973,-0.092 -1.561,0.078 -4.973,1.436 -35.321,11.049 -35.766,12.235 z m 30.953,-16.297 0.379,-1.077 a 0.32,0.32 0 0 0 0.025,-0.085 c 0.027,-0.238 -0.11,-0.229 -0.214,-0.379 -0.084,-0.121 -0.099,-0.629 -0.111,-0.668 a 0.392,0.392 0 0 0 -0.089,-0.156 c -0.19,-0.226 -0.48,-0.432 -0.557,-0.601 -0.031,-0.067 -0.104,-1.071 -0.134,-1.136 -0.032,-0.069 -0.159,-0.206 -0.239,-0.316 a 0.365,0.365 0 0 1 -0.05,-0.085 c -0.041,-0.096 -0.074,-0.364 -0.099,-0.396 -0.031,-0.039 -0.143,-0.081 -0.168,-0.117 -0.019,-0.025 -0.032,-0.122 -0.027,-0.191 0.018,-0.243 0.059,-0.361 -0.084,-0.499 -0.228,-0.219 -0.342,-0.182 -0.423,-0.446 -0.156,-0.502 -0.988,-0.755 -1.572,-0.668 -0.107,0.016 -0.728,0.285 -0.958,0.345 a 3.778,3.778 0 0 1 -0.655,0.056 c -0.623,-0.021 -0.627,-0.026 -1.351,0.278 -0.168,0.071 -5.371,1.549 -6.195,1.76 -21.757,6.264 -39.542,13.679 -59.304,24.724 -0.316,0.193 -0.919,0.55 -1.145,0.84 -0.227,0.292 -0.272,0.514 -0.479,0.657 -0.074,0.051 -0.327,0.139 -0.513,0.223 -0.074,0.033 -0.665,0.512 -0.702,0.568 -0.048,0.073 -0.125,0.275 -0.022,0.423 0.026,0.038 0.078,0.063 0.123,0.078 0.085,0.029 0.185,0.035 0.267,0.067 0.095,0.037 0.187,0.111 0.268,0.134 0.238,0.068 0.276,-0.007 0.39,0.145 0.075,0.1 0.239,0.574 0.368,0.657 0.127,0.082 0.307,0.078 0.368,0.167 a 0.201,0.201 0 0 1 0.022,0.044 c 0.036,0.085 0.205,1.239 0.205,1.394 0,0.105 -0.062,0.732 0.096,0.846 0.135,0.096 0.472,0.018 0.624,-0.023 0.64,-0.17 0.606,-0.43 1.382,-0.957 l 1.917,-1.08 c 0.115,-0.076 0.384,-0.174 0.423,-0.213 a 0.95,0.95 0 0 0 0.111,-0.155 c 0.125,-0.177 0.301,-0.226 0.58,-0.312 0.252,-0.077 0.263,-0.005 0.535,0.201 0.56,0.425 1.018,0.726 1.671,0.245 0.292,-0.185 0.547,-0.328 0.858,-0.479 20.41,-9.682 38.514,-16.071 60.48,-21.342 0.4,-0.075 3.72,-0.882 3.8,-0.924 0.478,-0.253 0.354,-0.79 0.195,-1.417 -0.016,-0.06 -0.015,-0.073 0.004,-0.13 z m -42.897,-7.778 c 0,1.853 0.781,5.227 2.562,6.438 0.202,0.138 0.432,0.208 0.546,0.379 0.167,0.25 0.101,0.326 0.323,0.39 0.343,0.098 0.384,-0.005 1.012,0.011 0.096,0.003 0.531,0.072 0.66,0.045 0.213,-0.045 0.339,-0.169 0.512,-0.056 0.107,0.07 0.077,0.112 0.145,0.234 0.112,0.2 0.704,0.171 0.867,0.155 0.615,-0.059 1.142,-0.216 1.44,-0.713 0.088,-0.146 0.457,-0.752 0.893,-0.942 0.231,-0.101 0.275,-0.059 0.374,-0.143 0.201,-0.172 0.426,-0.639 0.501,-0.744 0.065,-0.093 0.555,-0.525 0.85,-0.8 1.46,-1.363 3.423,-5.59 2.975,-7.958 -0.096,-0.507 -0.465,-2.182 -0.747,-2.602 -0.12,-0.18 -0.333,-0.359 -0.401,-0.557 -0.02,-0.058 -0.027,-0.118 -0.045,-0.178 -0.272,-0.966 -1.992,-3.08899996 -2.966,-3.09699996 -0.1,-0.001 -0.188,0.015 -0.276,0 -0.083,-0.014 -0.409,-0.179 -0.512,-0.201 -0.101,-0.021 -0.552,10e-4 -0.646,0.056 -0.37,0.201 -0.705,0.332 -1.114,0.434 -0.188,0.046 -0.26,0.028 -0.396,0.13 -0.126,0.093 -0.244,0.246 -0.36,0.33 -0.066,0.047 -0.383,0.15499996 -0.582,0.24199996 -1.753,0.769 -3.751,3.115 -4.401,4.823 -0.224,0.591 -1.214,3.753 -1.214,4.324 z"
     fill-rule="evenodd"
     clip-rule="evenodd"
     fill="#ce382f"
     id="path38" />
  <path
     d="m 81.561407,67.124844 4.296,-8.232 a 76.483,76.483 0 0 1 -0.426,1.793 l -0.242,0.986 -1.309,4.844 a 27.411,27.411 0 0 1 -0.637,2.045 h 2.08 c 0.155,-0.754 0.299,-1.4 0.422,-1.902 0.071,-0.287 0.147,-0.537 0.195,-0.734 l 1.86,-6.779 c 0.129,-0.467 0.342,-1.273 0.693,-2.459 h -3.277 c -0.289,0.629 -0.547,1.131 -0.748,1.525 l -4.15,7.82 0.462,-8.16 c 0.012,-0.109 0.034,-0.504 0.096,-1.186 h -3.427 c -1.491,5.221 -2.764,9.184 -3.769,11.875 h 2.05 c 0.389,-1.4 0.693,-2.457 0.914,-3.176 l 2.154,-6.762 -0.466,8.664 c -0.018,0.377 -0.063,0.807 -0.118,1.273 h 2.634 c 0.229,-0.504 0.463,-0.968 0.713,-1.435 z m 5.399,1.435 h 7.363 l 0.652,-2.35 c -1.124,0.125 -2.394,0.18 -3.816,0.18 -0.523,0 -0.983,-0.02 -1.397,-0.037 l 0.062,-0.25 c 0.128,-0.521 0.276,-1.006 0.421,-1.471 l 0.379,-1.238 h 3.277 c 0.463,0 0.942,0 1.409,0.053 l 0.609,-2.242 c -0.557,0.072 -1.109,0.072 -1.678,0.072 h -3.023 l 0.327,-1.146 c 0.171,-0.574 0.311,-1.023 0.465,-1.346 h 3.382 c 0.225,0 0.818,0.018 1.748,0.072 l 0.607,-2.172 h -7.362 c -1.284,4.987 -2.437,8.951 -3.425,11.875 z m 8.664,0 h 4.551003 c 3.217,0 5.795,-2.457 6.764,-6.404 0.52,-2.115 0.314,-3.713 -0.504,-4.645 -0.689,-0.789 -1.639,-0.826 -2.896,-0.826 h -4.488003 c -1.329,5.166 -2.499,9.131 -3.427,11.875 z m 2.906,-2.082 0.168,-0.682 c 0.152,-0.627 0.314,-1.219 0.479,-1.828 l 1.471003,-5.201 h 1.826 c 1.004,0 1.691,0 2.072,0.52 0.412,0.574 0.465,1.578 0.123,2.977 -0.385,1.561 -1.123,2.744 -2.146,3.498 -0.965,0.699 -1.822,0.717 -2.930003,0.717 h -1.063 z m 7.979003,2.082 h 7.363 l 0.65,-2.35 c -1.123,0.125 -2.393,0.18 -3.814,0.18 -0.523,0 -0.984,-0.02 -1.398,-0.037 l 0.062,-0.25 a 23.86,23.86 0 0 1 0.42,-1.471 l 0.379,-1.238 h 3.277 c 0.465,0 0.943,0 1.408,0.053 l 0.611,-2.242 c -0.557,0.072 -1.111,0.072 -1.68,0.072 h -3.022 l 0.328,-1.146 c 0.17,-0.574 0.311,-1.023 0.465,-1.346 h 3.383 c 0.225,0 0.818,0.018 1.748,0.072 l 0.607,-2.172 h -7.363 c -1.284,4.987 -2.438,8.951 -3.424,11.875 z m 19.478,-9.615 0.467,-2.26 c -0.959,-0.178 -1.746,-0.268 -2.359,-0.268 -3.92,0 -6.564,2.295 -7.59,6.475 -0.947,3.855 0.412,5.938 4.02,5.938 0.867,0 1.766,-0.127 2.684,-0.27 l 0.828,-2.457 c -0.969,0.287 -1.842,0.43 -2.619,0.43 -2.41,0 -3.361,-1.363 -2.732,-3.928 0.652,-2.654 2.363,-4.197 4.668,-4.197 1.045,0 1.92,0.215 2.633,0.537 z m 4.473,-2.26 h -2.318 c -1.338,5.201 -2.506,9.166 -3.439,11.875 h 2.35 c 0.152,-0.682 0.297,-1.273 0.412,-1.74 0.088,-0.359 0.158,-0.646 0.234,-0.896 l 1.959,-6.762 c 0.224,-0.789 0.501,-1.615 0.802,-2.477 z m 4.32,11.875 h 3.457 c 0.119,-0.484 0.215,-0.934 0.307,-1.311 0.137,-0.555 0.258,-0.986 0.355,-1.326 l 1.945,-6.762 c 0.225,-0.789 0.502,-1.615 0.803,-2.477 h -2.051 c -0.057,0.234 -0.1,0.467 -0.152,0.682 -0.186,0.754 -0.383,1.436 -0.574,2.1 l -2.031,7.174 -1.236,-9.955 h -3.293 c -1.527,5.488 -2.65,9.453 -3.5,11.875 h 2.051 c 0.283,-1.096 0.602,-2.332 0.996,-3.695 l 1.814,-6.35 0.812,6.744 c 0.133,1.166 0.274,2.243 0.297,3.301 z m 8.174,-6.152 1.668,2.17 c 0.281,0.377 0.379,0.771 0.299,1.094 -0.176,0.719 -0.873,1.184 -1.893,1.184 -0.703,0 -1.631,-0.305 -2.68,-0.969 l -0.443,2.297 c 0.496,0.357 1.486,0.646 2.789,0.646 2.23,0 3.85,-1.293 4.303,-3.141 0.277,-1.129 -0.016,-2.008 -0.787,-3.012 l -1.818,-2.404 c -0.156,-0.215 -0.195,-0.484 -0.125,-0.771 0.18,-0.734 0.863,-1.201 1.955,-1.201 0.629,0 1.266,0.215 2.004,0.557 l 0.4,-2.117 c -0.838,-0.18 -1.635,-0.287 -2.414,-0.287 -2.186,0 -3.57,1.076 -4.02,2.906 -0.3,1.218 -0.019,2.024 0.762,3.048 z m -79.744003,15.09 1.664,2.152 c 0.281,0.373 0.378,0.764 0.299,1.084 -0.176,0.711 -0.873,1.174 -1.888,1.174 -0.702,0 -1.628,-0.303 -2.675,-0.961 l -0.443,2.277 c 0.495,0.355 1.484,0.639 2.784,0.639 2.225,0 3.841,-1.279 4.294,-3.111 0.277,-1.121 -0.016,-1.992 -0.785,-2.988 l -1.815,-2.383 c -0.156,-0.213 -0.195,-0.48 -0.125,-0.764 0.18,-0.73 0.862,-1.191 1.952,-1.191 0.627,0 1.261,0.213 2,0.551 l 0.399,-2.098 c -0.837,-0.18 -1.633,-0.285 -2.409,-0.285 -2.181,0 -3.564,1.066 -4.013,2.881 -0.298,1.208 -0.018,2.009 0.761,3.023 z m 2.986,6.099 h 2.271 c 0.34,-0.711 0.649,-1.299 0.962,-1.779 l 1.817,-2.881 h 3.435 l 0.192,3.273 c 0.017,0.23 -0.022,0.693 -0.089,1.387 h 2.39 l -0.54,-9.781 a 24.833,24.833 0 0 1 -0.016,-1.992 h -2.987 c -0.307,0.641 -0.575,1.121 -0.789,1.441 z m 8.34,-10.172 0.168,3.609 h -2.375 z m 8.888,10.172 h 3.45 c 0.119,-0.48 0.214,-0.926 0.306,-1.299 0.136,-0.551 0.257,-0.979 0.355,-1.316 l 1.941,-6.703 c 0.223,-0.783 0.5,-1.602 0.801,-2.455 h -2.046 c -0.057,0.23 -0.099,0.463 -0.152,0.676 a 49.669,49.669 0 0 1 -0.574,2.08 l -2.027,7.115 -1.234,-9.871 h -3.286 c -1.524,5.441 -2.645,9.373 -3.493,11.773 h 2.046 c 0.283,-1.086 0.601,-2.312 0.995,-3.664 l 1.811,-6.295 0.812,6.686 c 0.131,1.156 0.27,2.223 0.295,3.273 z m 8.157,-6.099 1.664,2.152 c 0.281,0.373 0.378,0.764 0.299,1.084 -0.176,0.711 -0.873,1.174 -1.888,1.174 -0.702,0 -1.628,-0.303 -2.675,-0.961 l -0.443,2.277 c 0.495,0.355 1.484,0.639 2.784,0.639 2.225,0 3.841,-1.279 4.294,-3.111 0.275,-1.121 -0.016,-1.992 -0.785,-2.988 l -1.816,-2.383 c -0.156,-0.213 -0.195,-0.48 -0.125,-0.764 0.18,-0.73 0.862,-1.191 1.952,-1.191 0.627,0 1.262,0.213 2,0.551 l 0.398,-2.098 c -0.838,-0.18 -1.633,-0.285 -2.408,-0.285 -2.181,0 -3.565,1.066 -4.013,2.881 -0.298,1.208 -0.018,2.009 0.762,3.023 z m 8.664003,6.099 h 2.256 a 54.56,54.56 0 0 1 1.022,-3.895 l 0.379,-1.227 h 2.689 c 0.463,0 0.926,0 1.391,0.053 l 0.623,-2.223 c -0.477,0.053 -1.033,0.07 -1.676,0.07 h -2.434 l 0.326,-1.139 c 0.17,-0.568 0.311,-1.014 0.463,-1.334 h 2.779 c 0.223,0 0.816,0.02 1.744,0.072 l 0.621,-2.152 h -6.766 c -1.28,4.945 -2.431,8.877 -3.417,11.775 z m 7.9,0 h 2.314 c 0.568,-2.117 0.877,-3.309 0.963,-3.592 l 1.279,-4.57 c 0.164,-0.605 0.359,-1.156 0.578,-1.672 0.471,-0.037 0.908,-0.055 1.281,-0.055 1.389,0 1.934,0.215 1.645,1.389 -0.299,1.209 -1.186,1.83 -2.664,1.83 -0.283,0 -0.562,-0.018 -0.848,-0.07 l 0.738,6.74 h 2.344 a 103.646,103.646 0 0 1 -0.709,-5.229 c 1.717,-0.658 2.795,-1.814 3.189,-3.414 0.348,-1.406 0.115,-2.4 -0.525,-2.828 -0.424,-0.285 -1.016,-0.303 -1.762,-0.303 h -4.406 c -1.325,5.122 -2.491,9.054 -3.417,11.774 z m 14.299,0.248 c 3.494,0 6.219,-2.436 7.189,-6.365 0.932,-3.771 -0.527,-5.904 -4.156,-5.904 -3.496,0 -6.219,2.436 -7.193,6.385 -0.928,3.752 0.545,5.884 4.16,5.884 z m -1.916,-5.904 c 0.686,-2.773 2.27,-4.285 4.449,-4.285 2.182,0 3.012,1.352 2.396,3.842 -0.689,2.791 -2.283,4.285 -4.523,4.285 -2.062,0 -2.923,-1.404 -2.322,-3.842 z m 14.705,5.656 h 3.449 c 0.119,-0.48 0.215,-0.926 0.307,-1.299 0.137,-0.551 0.256,-0.979 0.355,-1.316 l 1.941,-6.703 c 0.223,-0.783 0.5,-1.602 0.801,-2.455 h -2.047 c -0.057,0.23 -0.1,0.463 -0.152,0.676 a 46.781,46.781 0 0 1 -0.574,2.08 l -2.027,7.115 -1.234,-9.871 h -3.285 c -1.523,5.441 -2.645,9.373 -3.492,11.773 h 2.045 c 0.283,-1.086 0.602,-2.312 0.996,-3.664 l 1.811,-6.295 0.811,6.686 c 0.131,1.156 0.272,2.223 0.295,3.273 z m 12.051,-9.888 c 0.303,-0.018 0.602,-0.018 0.916,-0.018 0.672,0 1.334,0.035 2.004,0.107 l 0.578,-1.975 h -7.871 l -0.594,1.975 a 23.603,23.603 0 0 1 2.193,-0.107 c 0.238,0 0.479,0 0.713,0.018 a 134.422,134.422 0 0 1 -3.027,9.889 h 2.33 c 0.068,-0.338 0.156,-0.693 0.248,-1.068 0.186,-0.746 0.412,-1.6 0.689,-2.543 z m 6.719,-1.885 h -2.314 c -1.334,5.158 -2.5,9.088 -3.432,11.773 h 2.344 a 74.48,74.48 0 0 1 0.412,-1.725 c 0.088,-0.357 0.158,-0.641 0.234,-0.891 l 1.955,-6.703 a 45.95,45.95 0 0 1 0.801,-2.454 z m -1.662,11.773 h 7.348 l 0.652,-2.33 c -1.123,0.125 -2.391,0.178 -3.809,0.178 -0.523,0 -0.982,-0.018 -1.395,-0.035 l 0.061,-0.25 c 0.129,-0.516 0.277,-0.994 0.42,-1.457 l 0.379,-1.227 h 3.27 c 0.463,0 0.941,0 1.406,0.053 l 0.609,-2.223 c -0.555,0.07 -1.107,0.07 -1.676,0.07 h -3.016 l 0.326,-1.139 c 0.17,-0.568 0.309,-1.014 0.463,-1.334 h 3.375 c 0.225,0 0.818,0.02 1.746,0.072 l 0.605,-2.152 h -7.348 c -1.28,4.944 -2.43,8.876 -3.416,11.774 z m 8.633,0 h 2.314 c 0.568,-2.117 0.877,-3.309 0.963,-3.592 l 1.279,-4.57 c 0.164,-0.605 0.359,-1.156 0.576,-1.672 0.473,-0.037 0.91,-0.055 1.283,-0.055 1.389,0 1.934,0.215 1.645,1.389 -0.301,1.209 -1.186,1.83 -2.664,1.83 -0.283,0 -0.562,-0.018 -0.848,-0.07 l 0.738,6.74 h 2.344 a 103.646,103.646 0 0 1 -0.709,-5.229 c 1.717,-0.658 2.793,-1.814 3.189,-3.414 0.348,-1.406 0.115,-2.4 -0.525,-2.828 -0.424,-0.285 -1.016,-0.303 -1.764,-0.303 h -4.404 c -1.326,5.122 -2.492,9.054 -3.417,11.774 z m 8.804,0 h 7.348 l 0.65,-2.33 c -1.121,0.125 -2.389,0.178 -3.807,0.178 -0.523,0 -0.982,-0.018 -1.396,-0.035 l 0.062,-0.25 c 0.127,-0.516 0.275,-0.994 0.42,-1.457 l 0.377,-1.227 h 3.271 c 0.463,0 0.941,0 1.406,0.053 l 0.609,-2.223 c -0.557,0.07 -1.109,0.07 -1.676,0.07 h -3.018 l 0.326,-1.139 c 0.172,-0.568 0.311,-1.014 0.465,-1.334 h 3.375 c 0.225,0 0.816,0.02 1.744,0.072 l 0.607,-2.152 h -7.348 c -1.28,4.944 -2.43,8.876 -3.415,11.774 z m 11.649,-6.099 1.662,2.152 c 0.281,0.373 0.379,0.764 0.301,1.084 -0.176,0.711 -0.873,1.174 -1.889,1.174 -0.701,0 -1.629,-0.303 -2.676,-0.961 l -0.443,2.277 c 0.496,0.355 1.484,0.639 2.785,0.639 2.225,0 3.84,-1.279 4.293,-3.111 0.277,-1.121 -0.016,-1.992 -0.785,-2.988 l -1.814,-2.383 c -0.156,-0.213 -0.195,-0.48 -0.125,-0.764 0.18,-0.73 0.861,-1.191 1.953,-1.191 0.627,0 1.26,0.213 1.998,0.551 l 0.4,-2.098 c -0.838,-0.18 -1.633,-0.285 -2.41,-0.285 -2.18,0 -3.564,1.066 -4.012,2.881 -0.299,1.208 -0.02,2.009 0.762,3.023 z"
     fill="none"
     stroke="#ffffff"
     stroke-width="0.216"
     stroke-miterlimit="2.613"
     id="path40" />
  <path
     d="m 66.196407,83.596844 h 2.271 c 0.34,-0.711 0.649,-1.299 0.962,-1.779 l 1.817,-2.881 h 3.435 l 0.192,3.273 c 0.017,0.23 -0.022,0.693 -0.089,1.387 h 2.39 l -0.54,-9.781 a 24.833,24.833 0 0 1 -0.016,-1.992 h -2.987 c -0.307,0.641 -0.575,1.121 -0.789,1.441 z m 8.34,-10.172 0.168,3.609 h -2.375 z m 7.025,-6.3 4.296,-8.232 a 76.483,76.483 0 0 1 -0.426,1.793 l -0.242,0.986 -1.309,4.844 a 27.411,27.411 0 0 1 -0.637,2.045 h 2.08 c 0.155,-0.754 0.299,-1.4 0.422,-1.902 0.071,-0.287 0.147,-0.537 0.195,-0.734 l 1.86,-6.779 c 0.129,-0.467 0.342,-1.273 0.693,-2.459 h -3.277 c -0.289,0.629 -0.547,1.131 -0.748,1.525 l -4.15,7.82 0.462,-8.16 c 0.012,-0.109 0.034,-0.504 0.096,-1.186 h -3.427 c -1.491,5.221 -2.764,9.184 -3.769,11.875 h 2.05 c 0.389,-1.4 0.693,-2.457 0.914,-3.176 l 2.154,-6.762 -0.466,8.664 c -0.018,0.377 -0.063,0.807 -0.118,1.273 h 2.634 c 0.229,-0.504 0.463,-0.968 0.713,-1.435 z m 5.399,1.435 h 7.363 l 0.652,-2.35 c -1.124,0.125 -2.394,0.18 -3.816,0.18 -0.523,0 -0.983,-0.02 -1.397,-0.037 l 0.062,-0.25 c 0.128,-0.521 0.276,-1.006 0.421,-1.471 l 0.379,-1.238 h 3.277 c 0.463,0 0.942,0 1.409,0.053 l 0.609,-2.242 c -0.557,0.072 -1.109,0.072 -1.678,0.072 h -3.023 l 0.327,-1.146 c 0.171,-0.574 0.311,-1.023 0.465,-1.346 h 3.382 c 0.225,0 0.818,0.018 1.748,0.072 l 0.607,-2.172 h -7.362 c -1.284,4.987 -2.437,8.951 -3.425,11.875 z m 8.664,0 h 4.551003 c 3.217,0 5.795,-2.457 6.764,-6.404 0.52,-2.115 0.314,-3.713 -0.504,-4.645 -0.689,-0.789 -1.639,-0.826 -2.896,-0.826 h -4.488003 c -1.329,5.166 -2.499,9.131 -3.427,11.875 z m 2.906,-2.082 0.168,-0.682 c 0.152,-0.627 0.314,-1.219 0.479,-1.828 l 1.471003,-5.201 h 1.826 c 1.004,0 1.691,0 2.072,0.52 0.412,0.574 0.465,1.578 0.123,2.977 -0.385,1.561 -1.123,2.744 -2.146,3.498 -0.965,0.699 -1.822,0.717 -2.930003,0.717 h -1.063 z m 7.979003,2.082 h 7.363 l 0.65,-2.35 c -1.123,0.125 -2.393,0.18 -3.814,0.18 -0.523,0 -0.984,-0.02 -1.398,-0.037 l 0.062,-0.25 a 23.86,23.86 0 0 1 0.42,-1.471 l 0.379,-1.238 h 3.277 c 0.465,0 0.943,0 1.408,0.053 l 0.611,-2.242 c -0.557,0.072 -1.111,0.072 -1.68,0.072 h -3.022 l 0.328,-1.146 c 0.17,-0.574 0.311,-1.023 0.465,-1.346 h 3.383 c 0.225,0 0.818,0.018 1.748,0.072 l 0.607,-2.172 h -7.363 c -1.284,4.987 -2.438,8.951 -3.424,11.875 z m 19.478,-9.615 0.467,-2.26 c -0.959,-0.178 -1.746,-0.268 -2.359,-0.268 -3.92,0 -6.564,2.295 -7.59,6.475 -0.947,3.855 0.412,5.938 4.02,5.938 0.867,0 1.766,-0.127 2.684,-0.27 l 0.828,-2.457 c -0.969,0.287 -1.842,0.43 -2.619,0.43 -2.41,0 -3.361,-1.363 -2.732,-3.928 0.652,-2.654 2.363,-4.197 4.668,-4.197 1.045,0 1.92,0.215 2.633,0.537 z m 4.473,-2.26 h -2.318 c -1.338,5.201 -2.506,9.166 -3.439,11.875 h 2.35 c 0.152,-0.682 0.297,-1.273 0.412,-1.74 0.088,-0.359 0.158,-0.646 0.234,-0.896 l 1.959,-6.762 c 0.224,-0.789 0.501,-1.615 0.802,-2.477 z m 4.32,11.875 h 3.457 c 0.119,-0.484 0.215,-0.934 0.307,-1.311 0.137,-0.555 0.258,-0.986 0.355,-1.326 l 1.945,-6.762 c 0.225,-0.789 0.502,-1.615 0.803,-2.477 h -2.051 c -0.057,0.234 -0.1,0.467 -0.152,0.682 -0.186,0.754 -0.383,1.436 -0.574,2.1 l -2.031,7.174 -1.236,-9.955 h -3.293 c -1.527,5.488 -2.65,9.453 -3.5,11.875 h 2.051 c 0.283,-1.096 0.602,-2.332 0.996,-3.695 l 1.814,-6.35 0.812,6.744 c 0.133,1.166 0.274,2.243 0.297,3.301 z m 8.174,-6.152 1.668,2.17 c 0.281,0.377 0.379,0.771 0.299,1.094 -0.176,0.719 -0.873,1.184 -1.893,1.184 -0.703,0 -1.631,-0.305 -2.68,-0.969 l -0.443,2.297 c 0.496,0.357 1.486,0.646 2.789,0.646 2.23,0 3.85,-1.293 4.303,-3.141 0.277,-1.129 -0.016,-2.008 -0.787,-3.012 l -1.818,-2.404 c -0.156,-0.215 -0.195,-0.484 -0.125,-0.771 0.18,-0.734 0.863,-1.201 1.955,-1.201 0.629,0 1.266,0.215 2.004,0.557 l 0.4,-2.117 c -0.838,-0.18 -1.635,-0.287 -2.414,-0.287 -2.186,0 -3.57,1.076 -4.02,2.906 -0.3,1.218 -0.019,2.024 0.762,3.048 z m -79.744003,15.09 1.664,2.152 c 0.281,0.373 0.378,0.764 0.299,1.084 -0.176,0.711 -0.873,1.174 -1.888,1.174 -0.702,0 -1.628,-0.303 -2.675,-0.961 l -0.443,2.277 c 0.495,0.355 1.484,0.639 2.784,0.639 2.225,0 3.841,-1.279 4.294,-3.111 0.277,-1.121 -0.016,-1.992 -0.785,-2.988 l -1.815,-2.383 c -0.156,-0.213 -0.195,-0.48 -0.125,-0.764 0.18,-0.73 0.862,-1.191 1.952,-1.191 0.627,0 1.261,0.213 2,0.551 l 0.399,-2.098 c -0.837,-0.18 -1.633,-0.285 -2.409,-0.285 -2.181,0 -3.564,1.066 -4.013,2.881 -0.298,1.208 -0.018,2.009 0.761,3.023 z m 20.214,6.099 h 3.45 c 0.119,-0.48 0.214,-0.926 0.306,-1.299 0.136,-0.551 0.257,-0.979 0.355,-1.316 l 1.941,-6.703 c 0.223,-0.783 0.5,-1.602 0.801,-2.455 h -2.046 c -0.057,0.23 -0.099,0.463 -0.152,0.676 a 49.669,49.669 0 0 1 -0.574,2.08 l -2.027,7.115 -1.234,-9.871 h -3.286 c -1.524,5.441 -2.645,9.373 -3.493,11.773 h 2.046 c 0.283,-1.086 0.601,-2.312 0.995,-3.664 l 1.811,-6.295 0.812,6.686 c 0.131,1.156 0.27,2.223 0.295,3.273 z m 8.157,-6.099 1.664,2.152 c 0.281,0.373 0.378,0.764 0.299,1.084 -0.176,0.711 -0.873,1.174 -1.888,1.174 -0.702,0 -1.628,-0.303 -2.675,-0.961 l -0.443,2.277 c 0.495,0.355 1.484,0.639 2.784,0.639 2.225,0 3.841,-1.279 4.294,-3.111 0.275,-1.121 -0.016,-1.992 -0.785,-2.988 l -1.816,-2.383 c -0.156,-0.213 -0.195,-0.48 -0.125,-0.764 0.18,-0.73 0.862,-1.191 1.952,-1.191 0.627,0 1.262,0.213 2,0.551 l 0.398,-2.098 c -0.838,-0.18 -1.633,-0.285 -2.408,-0.285 -2.181,0 -3.565,1.066 -4.013,2.881 -0.298,1.208 -0.018,2.009 0.762,3.023 z m 8.664003,6.099 h 2.256 a 54.56,54.56 0 0 1 1.022,-3.895 l 0.379,-1.227 h 2.689 c 0.463,0 0.926,0 1.391,0.053 l 0.623,-2.223 c -0.477,0.053 -1.033,0.07 -1.676,0.07 h -2.434 l 0.326,-1.139 c 0.17,-0.568 0.311,-1.014 0.463,-1.334 h 2.779 c 0.223,0 0.816,0.02 1.744,0.072 l 0.621,-2.152 h -6.766 c -1.28,4.945 -2.431,8.877 -3.417,11.775 z m 7.9,0 h 2.314 c 0.568,-2.117 0.877,-3.309 0.963,-3.592 l 1.279,-4.57 c 0.164,-0.605 0.359,-1.156 0.578,-1.672 0.471,-0.037 0.908,-0.055 1.281,-0.055 1.389,0 1.934,0.215 1.645,1.389 -0.299,1.209 -1.186,1.83 -2.664,1.83 -0.283,0 -0.562,-0.018 -0.848,-0.07 l 0.738,6.74 h 2.344 a 103.646,103.646 0 0 1 -0.709,-5.229 c 1.717,-0.658 2.795,-1.814 3.189,-3.414 0.348,-1.406 0.115,-2.4 -0.525,-2.828 -0.424,-0.285 -1.016,-0.303 -1.762,-0.303 h -4.406 c -1.325,5.122 -2.491,9.054 -3.417,11.774 z m 14.299,0.248 c 3.494,0 6.219,-2.436 7.189,-6.365 0.932,-3.771 -0.527,-5.904 -4.156,-5.904 -3.496,0 -6.219,2.436 -7.193,6.385 -0.928,3.752 0.545,5.884 4.16,5.884 z m -1.916,-5.904 c 0.686,-2.773 2.27,-4.285 4.449,-4.285 2.182,0 3.012,1.352 2.396,3.842 -0.689,2.791 -2.283,4.285 -4.523,4.285 -2.062,0 -2.923,-1.404 -2.322,-3.842 z m 14.705,5.656 h 3.449 c 0.119,-0.48 0.215,-0.926 0.307,-1.299 0.137,-0.551 0.256,-0.979 0.355,-1.316 l 1.941,-6.703 c 0.223,-0.783 0.5,-1.602 0.801,-2.455 h -2.047 c -0.057,0.23 -0.1,0.463 -0.152,0.676 a 46.781,46.781 0 0 1 -0.574,2.08 l -2.027,7.115 -1.234,-9.871 h -3.285 c -1.523,5.441 -2.645,9.373 -3.492,11.773 h 2.045 c 0.283,-1.086 0.602,-2.312 0.996,-3.664 l 1.811,-6.295 0.811,6.686 c 0.131,1.156 0.272,2.223 0.295,3.273 z m 12.051,-9.888 c 0.303,-0.018 0.602,-0.018 0.916,-0.018 0.672,0 1.334,0.035 2.004,0.107 l 0.578,-1.975 h -7.871 l -0.594,1.975 a 23.603,23.603 0 0 1 2.193,-0.107 c 0.238,0 0.479,0 0.713,0.018 a 134.422,134.422 0 0 1 -3.027,9.889 h 2.33 c 0.068,-0.338 0.156,-0.693 0.248,-1.068 0.186,-0.746 0.412,-1.6 0.689,-2.543 z m 6.719,-1.885 h -2.314 c -1.334,5.158 -2.5,9.088 -3.432,11.773 h 2.344 a 74.48,74.48 0 0 1 0.412,-1.725 c 0.088,-0.357 0.158,-0.641 0.234,-0.891 l 1.955,-6.703 a 45.95,45.95 0 0 1 0.801,-2.454 z m -1.662,11.773 h 7.348 l 0.652,-2.33 c -1.123,0.125 -2.391,0.178 -3.809,0.178 -0.523,0 -0.982,-0.018 -1.395,-0.035 l 0.061,-0.25 c 0.129,-0.516 0.277,-0.994 0.42,-1.457 l 0.379,-1.227 h 3.27 c 0.463,0 0.941,0 1.406,0.053 l 0.609,-2.223 c -0.555,0.07 -1.107,0.07 -1.676,0.07 h -3.016 l 0.326,-1.139 c 0.17,-0.568 0.309,-1.014 0.463,-1.334 h 3.375 c 0.225,0 0.818,0.02 1.746,0.072 l 0.605,-2.152 h -7.348 c -1.28,4.944 -2.43,8.876 -3.416,11.774 z m 8.633,0 h 2.314 c 0.568,-2.117 0.877,-3.309 0.963,-3.592 l 1.279,-4.57 c 0.164,-0.605 0.359,-1.156 0.576,-1.672 0.473,-0.037 0.91,-0.055 1.283,-0.055 1.389,0 1.934,0.215 1.645,1.389 -0.301,1.209 -1.186,1.83 -2.664,1.83 -0.283,0 -0.562,-0.018 -0.848,-0.07 l 0.738,6.74 h 2.344 a 103.646,103.646 0 0 1 -0.709,-5.229 c 1.717,-0.658 2.793,-1.814 3.189,-3.414 0.348,-1.406 0.115,-2.4 -0.525,-2.828 -0.424,-0.285 -1.016,-0.303 -1.764,-0.303 h -4.404 c -1.326,5.122 -2.492,9.054 -3.417,11.774 z m 8.804,0 h 7.348 l 0.65,-2.33 c -1.121,0.125 -2.389,0.178 -3.807,0.178 -0.523,0 -0.982,-0.018 -1.396,-0.035 l 0.062,-0.25 c 0.127,-0.516 0.275,-0.994 0.42,-1.457 l 0.377,-1.227 h 3.271 c 0.463,0 0.941,0 1.406,0.053 l 0.609,-2.223 c -0.557,0.07 -1.109,0.07 -1.676,0.07 h -3.018 l 0.326,-1.139 c 0.172,-0.568 0.311,-1.014 0.465,-1.334 h 3.375 c 0.225,0 0.816,0.02 1.744,0.072 l 0.607,-2.152 h -7.348 c -1.28,4.944 -2.43,8.876 -3.415,11.774 z m 11.649,-6.099 1.662,2.152 c 0.281,0.373 0.379,0.764 0.301,1.084 -0.176,0.711 -0.873,1.174 -1.889,1.174 -0.701,0 -1.629,-0.303 -2.676,-0.961 l -0.443,2.277 c 0.496,0.355 1.484,0.639 2.785,0.639 2.225,0 3.84,-1.279 4.293,-3.111 0.277,-1.121 -0.016,-1.992 -0.785,-2.988 l -1.814,-2.383 c -0.156,-0.213 -0.195,-0.48 -0.125,-0.764 0.18,-0.73 0.861,-1.191 1.953,-1.191 0.627,0 1.26,0.213 1.998,0.551 l 0.4,-2.098 c -0.838,-0.18 -1.633,-0.285 -2.41,-0.285 -2.18,0 -3.564,1.066 -4.012,2.881 -0.299,1.208 -0.02,2.009 0.762,3.023 z"
     fill-rule="evenodd"
     clip-rule="evenodd"
     id="path42" />
</svg>
