<?xml version="1.0" encoding="utf-8"?>
<!-- Generator: Adobe Illustrator 24.1.2, SVG Export Plug-In . SVG Version: 6.00 Build 0)  -->
<svg version="1.1" id="Layer_1" xmlns="http://www.w3.org/2000/svg" xmlns:xlink="http://www.w3.org/1999/xlink" x="0px" y="0px"
	 viewBox="0 0 319.3 110.8" style="enable-background:new 0 0 319.3 110.8;" xml:space="preserve">
<style type="text/css">
	.st0{fill:#151529;}
</style>
<g>
	<rect x="136.4" y="29.9" class="st0" width="22.1" height="79.8"/>
	<path class="st0" d="M92.8,44.9c0-5.2-0.3-12.7-0.6-15H71.5c0.1,6.7,0.2,13.3,0.2,21.3v58.5h21.2V78.6c0-22.4,11.6-29.4,28.9-29.2
		V29.3C106.7,29.2,97.1,34.5,92.8,44.9z"/>
	<path class="st0" d="M223.1,27.4c-15.3,0-22.4,7.5-25.7,13.4c-0.1-3.2-0.4-8.6-0.7-10.9H176c0.2,5.9,0.2,12.9,0.2,19.7v60h21.3V68
		c0-15.2,6-23.6,18.2-23.6c11.5,0,15.3,7.9,15.3,18.1v47.2h21.4V59.5C252.3,38.7,240.9,27.4,223.1,27.4z"/>
	<path class="st0" d="M47.6,92.5c-5.8,0-11.7-2.5-11.7-9.1V44.9h20.4V29.5H35.5c-10.1,0-9.8-9.6-9.8-9.6h10.6V0H15.5v12.4
		c0,0-0.4,10.8,6.4,17.1H0v15.4h15.7v39.8c0,17.2,9.3,26,26.6,26c6.2,0,10.7-1.1,13.9-2.2l0-17.7C53.6,92,51,92.5,47.6,92.5z"/>
	<path class="st0" d="M147.8,0h-1.1c-5.5,0-10,4.5-10,10v0c0,5.5,4.5,10,10,10h1.1c5.5,0,10-4.5,10-10v0C157.7,4.5,153.3,0,147.8,0z
		"/>
	<path class="st0" d="M319.3,90.9c-2.7,1.1-5.2,1.6-8.7,1.6c-5.8,0-11.7-2.5-11.7-9.1V44.9h20.4V29.5h-26.3
		c6.8-6.3,6.4-17.1,6.4-17.1V0h-20.9v19.9h10.6c0,0,0.4,9.6-9.8,9.6h-16.4v15.4h15.7v39.8c0,17.2,9.3,26,26.6,26
		c6.2,0,10.7-1.1,13.9-2.2L319.3,90.9z"/>
</g>
</svg>
