<?xml version="1.0" encoding="UTF-8" standalone="no"?>
<!-- Created with Inkscape (http://www.inkscape.org/) -->

<svg
   xmlns:dc="http://purl.org/dc/elements/1.1/"
   xmlns:cc="http://creativecommons.org/ns#"
   xmlns:rdf="http://www.w3.org/1999/02/22-rdf-syntax-ns#"
   xmlns:svg="http://www.w3.org/2000/svg"
   xmlns="http://www.w3.org/2000/svg"
   xmlns:sodipodi="http://sodipodi.sourceforge.net/DTD/sodipodi-0.dtd"
   xmlns:inkscape="http://www.inkscape.org/namespaces/inkscape"
   width="48.478344mm"
   height="24.994387mm"
   viewBox="0 0 48.478344 24.994387"
   version="1.1"
   id="svg505"
   inkscape:version="0.92.3 (2405546, 2018-03-11)"
   sodipodi:docname="Genomics_England_logo.svg">
  <defs
     id="defs499">
    <clipPath
       clipPathUnits="userSpaceOnUse"
       id="clipPath160">
      <path
         d="M 56.693,728.809 H 193.545 V 799.37 H 56.693 Z"
         id="path158"
         inkscape:connector-curvature="0" />
    </clipPath>
  </defs>
  <sodipodi:namedview
     id="base"
     pagecolor="#ffffff"
     bordercolor="#666666"
     borderopacity="1.0"
     inkscape:pageopacity="0.0"
     inkscape:pageshadow="2"
     inkscape:zoom="4.011304"
     inkscape:cx="34.057182"
     inkscape:cy="73.680476"
     inkscape:document-units="mm"
     inkscape:current-layer="layer1"
     showgrid="false"
     inkscape:window-width="1920"
     inkscape:window-height="1001"
     inkscape:window-x="-9"
     inkscape:window-y="-9"
     inkscape:window-maximized="1"
     fit-margin-right="0.1"
     fit-margin-top="0.1"
     fit-margin-left="0.1"
     fit-margin-bottom="0.1" />
  <metadata
     id="metadata502">
    <rdf:RDF>
      <cc:Work
         rdf:about="">
        <dc:format>image/svg+xml</dc:format>
        <dc:type
           rdf:resource="http://purl.org/dc/dcmitype/StillImage" />
        <dc:title></dc:title>
      </cc:Work>
    </rdf:RDF>
  </metadata>
  <g
     inkscape:label="Layer 1"
     inkscape:groupmode="layer"
     id="layer1"
     transform="translate(-104.27273,-211.93137)">
    <g
       transform="matrix(0.35277777,0,0,-0.35277777,84.372703,494.03134)"
       id="g497">
      <g
         id="g154">
        <g
           clip-path="url(#clipPath160)"
           id="g156">
          <g
             transform="translate(145.5473,732.5165)"
             id="g162">
            <path
               inkscape:connector-curvature="0"
               id="path164"
               style="fill:#80d07b;fill-opacity:1;fill-rule:nonzero;stroke:none"
               d="m 0,0 h -5.143 c -0.947,0 -1.714,-0.766 -1.714,-1.714 0,-0.947 0.767,-1.715 1.714,-1.715 H 0 c 0.947,0 1.714,0.768 1.714,1.715 C 1.714,-0.766 0.947,0 0,0" />
          </g>
          <g
             transform="translate(186.689,737.6576)"
             id="g166">
            <path
               inkscape:connector-curvature="0"
               id="path168"
               style="fill:#80d07b;fill-opacity:1;fill-rule:nonzero;stroke:none"
               d="m 0,0 h -5.142 -10e-4 c -0.947,0 -1.714,-0.765 -1.714,-1.713 0,-0.948 0.767,-1.715 1.714,-1.715 H -5.142 0 c 0.946,0 1.714,0.767 1.714,1.715 C 1.714,-0.765 0.946,0 0,0" />
          </g>
          <g
             transform="translate(186.689,742.8021)"
             id="g170">
            <path
               inkscape:connector-curvature="0"
               id="path172"
               style="fill:#a3e1e5;fill-opacity:1;fill-rule:nonzero;stroke:none"
               d="m 0,0 h -5.142 -10e-4 c -0.947,0 -1.714,-0.765 -1.714,-1.714 0,-0.947 0.767,-1.714 1.714,-1.714 H -5.142 0 c 0.946,0 1.714,0.767 1.714,1.714 C 1.714,-0.765 0.946,0 0,0" />
          </g>
          <g
             transform="translate(186.689,747.9413)"
             id="g174">
            <path
               inkscape:connector-curvature="0"
               id="path176"
               style="fill:#4dc4cc;fill-opacity:1;fill-rule:nonzero;stroke:none"
               d="m 0,0 h -5.142 -10e-4 c -0.947,0 -1.714,-0.765 -1.714,-1.713 0,-0.948 0.767,-1.715 1.714,-1.715 H -5.142 0 c 0.946,0 1.714,0.767 1.714,1.715 C 1.714,-0.765 0.946,0 0,0" />
          </g>
          <g
             transform="translate(186.689,753.0859)"
             id="g178">
            <path
               inkscape:connector-curvature="0"
               id="path180"
               style="fill:#80d07b;fill-opacity:1;fill-rule:nonzero;stroke:none"
               d="m 0,0 h -5.142 -10e-4 c -0.947,0 -1.714,-0.765 -1.714,-1.714 0,-0.947 0.767,-1.714 1.714,-1.714 H -5.142 0 c 0.946,0 1.714,0.767 1.714,1.714 C 1.714,-0.765 0.946,0 0,0" />
          </g>
          <g
             transform="translate(186.689,758.2253)"
             id="g182">
            <path
               inkscape:connector-curvature="0"
               id="path184"
               style="fill:#a3e1e5;fill-opacity:1;fill-rule:nonzero;stroke:none"
               d="m 0,0 h -5.142 -10e-4 c -0.947,0 -1.714,-0.765 -1.714,-1.714 0,-0.947 0.767,-1.714 1.714,-1.714 H -5.142 0 c 0.946,0 1.714,0.767 1.714,1.714 C 1.714,-0.765 0.946,0 0,0" />
          </g>
          <g
             transform="translate(176.4038,737.6576)"
             id="g186">
            <path
               inkscape:connector-curvature="0"
               id="path188"
               style="fill:#4dc4cc;fill-opacity:1;fill-rule:nonzero;stroke:none"
               d="m 0,0 h -5.142 -10e-4 c -0.947,0 -1.713,-0.765 -1.713,-1.713 0,-0.948 0.766,-1.715 1.713,-1.715 H -5.142 0 c 0.947,0 1.714,0.767 1.714,1.715 C 1.714,-0.765 0.947,0 0,0" />
          </g>
          <g
             transform="translate(176.4038,742.8021)"
             id="g190">
            <path
               inkscape:connector-curvature="0"
               id="path192"
               style="fill:#a3e1e5;fill-opacity:1;fill-rule:nonzero;stroke:none"
               d="m 0,0 h -5.142 -10e-4 c -0.947,0 -1.713,-0.765 -1.713,-1.714 0,-0.947 0.766,-1.714 1.713,-1.714 H -5.142 0 c 0.947,0 1.714,0.767 1.714,1.714 C 1.714,-0.765 0.947,0 0,0" />
          </g>
          <g
             transform="translate(176.4038,747.9413)"
             id="g194">
            <path
               inkscape:connector-curvature="0"
               id="path196"
               style="fill:#80d07b;fill-opacity:1;fill-rule:nonzero;stroke:none"
               d="m 0,0 h -5.142 -10e-4 c -0.947,0 -1.713,-0.765 -1.713,-1.713 0,-0.948 0.766,-1.715 1.713,-1.715 H -5.142 0 c 0.947,0 1.714,0.767 1.714,1.715 C 1.714,-0.765 0.947,0 0,0" />
          </g>
          <g
             transform="translate(176.4038,753.0859)"
             id="g198">
            <path
               inkscape:connector-curvature="0"
               id="path200"
               style="fill:#4dc4cc;fill-opacity:1;fill-rule:nonzero;stroke:none"
               d="m 0,0 h -5.142 -10e-4 c -0.947,0 -1.713,-0.765 -1.713,-1.714 0,-0.947 0.766,-1.714 1.713,-1.714 H -5.142 0 c 0.947,0 1.714,0.767 1.714,1.714 C 1.714,-0.765 0.947,0 0,0" />
          </g>
          <g
             transform="translate(176.4038,758.2253)"
             id="g202">
            <path
               inkscape:connector-curvature="0"
               id="path204"
               style="fill:#80d07b;fill-opacity:1;fill-rule:nonzero;stroke:none"
               d="m 0,0 h -5.142 -10e-4 c -0.947,0 -1.713,-0.765 -1.713,-1.714 0,-0.947 0.766,-1.714 1.713,-1.714 H -5.142 0 c 0.947,0 1.714,0.767 1.714,1.714 C 1.714,-0.765 0.947,0 0,0" />
          </g>
          <g
             transform="translate(176.4038,763.3694)"
             id="g206">
            <path
               inkscape:connector-curvature="0"
               id="path208"
               style="fill:#4dc4cc;fill-opacity:1;fill-rule:nonzero;stroke:none"
               d="m 0,0 h -5.142 -10e-4 c -0.947,0 -1.713,-0.765 -1.713,-1.714 0,-0.947 0.766,-1.714 1.713,-1.714 H -5.142 0 c 0.947,0 1.714,0.767 1.714,1.714 C 1.714,-0.765 0.947,0 0,0" />
          </g>
          <g
             transform="translate(176.4038,768.5087)"
             id="g210">
            <path
               inkscape:connector-curvature="0"
               id="path212"
               style="fill:#a3e1e5;fill-opacity:1;fill-rule:nonzero;stroke:none"
               d="m 0,0 h -5.142 -10e-4 c -0.947,0 -1.713,-0.765 -1.713,-1.714 0,-0.947 0.766,-1.714 1.713,-1.714 H -5.142 0 c 0.947,0 1.714,0.767 1.714,1.714 C 1.714,-0.765 0.947,0 0,0" />
          </g>
          <g
             transform="translate(176.4038,773.6533)"
             id="g214">
            <path
               inkscape:connector-curvature="0"
               id="path216"
               style="fill:#80d07b;fill-opacity:1;fill-rule:nonzero;stroke:none"
               d="m 0,0 h -5.142 -10e-4 c -0.947,0 -1.713,-0.765 -1.713,-1.714 0,-0.947 0.766,-1.714 1.713,-1.714 H -5.142 0 c 0.947,0 1.714,0.767 1.714,1.714 C 1.714,-0.765 0.947,0 0,0" />
          </g>
          <g
             transform="translate(176.4038,778.7931)"
             id="g218">
            <path
               inkscape:connector-curvature="0"
               id="path220"
               style="fill:#a3e1e5;fill-opacity:1;fill-rule:nonzero;stroke:none"
               d="m 0,0 h -5.142 -10e-4 c -0.947,0 -1.713,-0.766 -1.713,-1.715 0,-0.947 0.766,-1.714 1.713,-1.714 H -5.142 0 c 0.947,0 1.714,0.767 1.714,1.714 C 1.714,-0.766 0.947,0 0,0" />
          </g>
          <g
             transform="translate(176.4038,783.9371)"
             id="g222">
            <path
               inkscape:connector-curvature="0"
               id="path224"
               style="fill:#4dc4cc;fill-opacity:1;fill-rule:nonzero;stroke:none"
               d="m 0,0 h -5.142 -10e-4 c -0.947,0 -1.713,-0.765 -1.713,-1.714 0,-0.947 0.766,-1.713 1.713,-1.713 H -5.142 0 c 0.947,0 1.714,0.766 1.714,1.713 C 1.714,-0.765 0.947,0 0,0" />
          </g>
          <g
             transform="translate(145.5473,737.6576)"
             id="g226">
            <path
               inkscape:connector-curvature="0"
               id="path228"
               style="fill:#4dc4cc;fill-opacity:1;fill-rule:nonzero;stroke:none"
               d="m 0,0 h -5.143 c -0.947,0 -1.714,-0.765 -1.714,-1.713 0,-0.948 0.767,-1.715 1.714,-1.715 H 0 c 0.947,0 1.714,0.767 1.714,1.715 C 1.714,-0.765 0.947,0 0,0" />
          </g>
          <g
             transform="translate(155.8344,737.6576)"
             id="g230">
            <path
               inkscape:connector-curvature="0"
               id="path232"
               style="fill:#80d07b;fill-opacity:1;fill-rule:nonzero;stroke:none"
               d="m 0,0 h -5.143 -0.001 c -0.948,0 -1.714,-0.765 -1.714,-1.713 0,-0.948 0.766,-1.715 1.714,-1.715 H -5.143 0 c 0.947,0 1.713,0.767 1.713,1.715 C 1.713,-0.765 0.947,0 0,0" />
          </g>
          <g
             transform="translate(155.8344,742.8021)"
             id="g234">
            <path
               inkscape:connector-curvature="0"
               id="path236"
               style="fill:#a3e1e5;fill-opacity:1;fill-rule:nonzero;stroke:none"
               d="m 0,0 h -5.143 -0.001 c -0.948,0 -1.714,-0.765 -1.714,-1.714 0,-0.947 0.766,-1.714 1.714,-1.714 H -5.143 0 c 0.947,0 1.713,0.767 1.713,1.714 C 1.713,-0.765 0.947,0 0,0" />
          </g>
          <g
             transform="translate(166.1196,737.6576)"
             id="g238">
            <path
               inkscape:connector-curvature="0"
               id="path240"
               style="fill:#a3e1e5;fill-opacity:1;fill-rule:nonzero;stroke:none"
               d="m 0,0 h -5.142 -0.002 c -0.947,0 -1.714,-0.765 -1.714,-1.713 0,-0.948 0.767,-1.715 1.714,-1.715 H -5.142 0 c 0.947,0 1.713,0.767 1.713,1.715 C 1.713,-0.765 0.947,0 0,0" />
          </g>
          <g
             transform="translate(166.1196,742.8021)"
             id="g242">
            <path
               inkscape:connector-curvature="0"
               id="path244"
               style="fill:#4dc4cc;fill-opacity:1;fill-rule:nonzero;stroke:none"
               d="m 0,0 h -5.142 -0.002 c -0.947,0 -1.714,-0.765 -1.714,-1.714 0,-0.947 0.767,-1.714 1.714,-1.714 H -5.142 0 c 0.947,0 1.713,0.767 1.713,1.714 C 1.713,-0.765 0.947,0 0,0" />
          </g>
          <g
             transform="translate(166.1196,747.9413)"
             id="g246">
            <path
               inkscape:connector-curvature="0"
               id="path248"
               style="fill:#a3e1e5;fill-opacity:1;fill-rule:nonzero;stroke:none"
               d="m 0,0 h -5.142 -0.002 c -0.947,0 -1.714,-0.765 -1.714,-1.713 0,-0.948 0.767,-1.715 1.714,-1.715 H -5.142 0 c 0.947,0 1.713,0.767 1.713,1.715 C 1.713,-0.765 0.947,0 0,0" />
          </g>
          <g
             transform="translate(166.1196,753.0859)"
             id="g250">
            <path
               inkscape:connector-curvature="0"
               id="path252"
               style="fill:#80d07b;fill-opacity:1;fill-rule:nonzero;stroke:none"
               d="m 0,0 h -5.142 -0.002 c -0.947,0 -1.714,-0.765 -1.714,-1.714 0,-0.947 0.767,-1.714 1.714,-1.714 H -5.142 0 c 0.947,0 1.713,0.767 1.713,1.714 C 1.713,-0.765 0.947,0 0,0" />
          </g>
          <g
             transform="translate(166.1196,758.2253)"
             id="g254">
            <path
               inkscape:connector-curvature="0"
               id="path256"
               style="fill:#4dc4cc;fill-opacity:1;fill-rule:nonzero;stroke:none"
               d="m 0,0 h -5.142 -0.002 c -0.947,0 -1.714,-0.765 -1.714,-1.714 0,-0.947 0.767,-1.714 1.714,-1.714 H -5.142 0 c 0.947,0 1.713,0.767 1.713,1.714 C 1.713,-0.765 0.947,0 0,0" />
          </g>
          <g
             transform="translate(166.1196,763.3694)"
             id="g258">
            <path
               inkscape:connector-curvature="0"
               id="path260"
               style="fill:#a3e1e5;fill-opacity:1;fill-rule:nonzero;stroke:none"
               d="m 0,0 h -5.142 -0.002 c -0.947,0 -1.714,-0.765 -1.714,-1.714 0,-0.947 0.767,-1.714 1.714,-1.714 H -5.142 0 c 0.947,0 1.713,0.767 1.713,1.714 C 1.713,-0.765 0.947,0 0,0" />
          </g>
          <g
             transform="translate(166.1196,768.5087)"
             id="g262">
            <path
               inkscape:connector-curvature="0"
               id="path264"
               style="fill:#80d07b;fill-opacity:1;fill-rule:nonzero;stroke:none"
               d="m 0,0 h -5.142 -0.002 c -0.947,0 -1.714,-0.765 -1.714,-1.714 0,-0.947 0.767,-1.714 1.714,-1.714 H -5.142 0 c 0.947,0 1.713,0.767 1.713,1.714 C 1.713,-0.765 0.947,0 0,0" />
          </g>
          <g
             transform="translate(166.1196,773.6533)"
             id="g266">
            <path
               inkscape:connector-curvature="0"
               id="path268"
               style="fill:#4dc4cc;fill-opacity:1;fill-rule:nonzero;stroke:none"
               d="m 0,0 h -5.142 -0.002 c -0.947,0 -1.714,-0.765 -1.714,-1.714 0,-0.947 0.767,-1.714 1.714,-1.714 H -5.142 0 c 0.947,0 1.713,0.767 1.713,1.714 C 1.713,-0.765 0.947,0 0,0" />
          </g>
          <g
             transform="translate(166.1196,778.7931)"
             id="g270">
            <path
               inkscape:connector-curvature="0"
               id="path272"
               style="fill:#80d07b;fill-opacity:1;fill-rule:nonzero;stroke:none"
               d="m 0,0 h -5.142 -0.002 c -0.947,0 -1.714,-0.766 -1.714,-1.715 0,-0.947 0.767,-1.714 1.714,-1.714 H -5.142 0 c 0.947,0 1.713,0.767 1.713,1.714 C 1.713,-0.766 0.947,0 0,0" />
          </g>
          <g
             transform="translate(166.1196,783.9371)"
             id="g274">
            <path
               inkscape:connector-curvature="0"
               id="path276"
               style="fill:#a3e1e5;fill-opacity:1;fill-rule:nonzero;stroke:none"
               d="m 0,0 h -5.142 -0.002 c -0.947,0 -1.714,-0.765 -1.714,-1.714 0,-0.947 0.767,-1.713 1.714,-1.713 H -5.142 0 c 0.947,0 1.713,0.766 1.713,1.713 C 1.713,-0.765 0.947,0 0,0" />
          </g>
          <g
             transform="translate(166.1196,789.0765)"
             id="g278">
            <path
               inkscape:connector-curvature="0"
               id="path280"
               style="fill:#80d07b;fill-opacity:1;fill-rule:nonzero;stroke:none"
               d="m 0,0 h -5.142 -0.002 c -0.947,0 -1.714,-0.766 -1.714,-1.714 0,-0.947 0.767,-1.714 1.714,-1.714 H -5.142 0 c 0.947,0 1.713,0.767 1.713,1.714 C 1.713,-0.766 0.947,0 0,0" />
          </g>
          <g
             transform="translate(167.8316,730.8021)"
             id="g282">
            <path
               inkscape:connector-curvature="0"
               id="path284"
               style="fill:#a3e1e5;fill-opacity:1;fill-rule:nonzero;stroke:none"
               d="m 0,0 c 0,-0.947 -0.766,-1.714 -1.713,-1.714 -0.948,0 -1.715,0.767 -1.715,1.714 0,0.948 0.767,1.714 1.715,1.714 C -0.766,1.714 0,0.948 0,0" />
          </g>
          <g
             transform="translate(136.9755,730.8007)"
             id="g286">
            <path
               inkscape:connector-curvature="0"
               id="path288"
               style="fill:#a3e1e5;fill-opacity:1;fill-rule:nonzero;stroke:none"
               d="m 0,0 c 0,-0.945 -0.766,-1.714 -1.715,-1.714 -0.947,0 -1.714,0.769 -1.714,1.714 0,0.948 0.767,1.716 1.714,1.716 C -0.766,1.716 0,0.948 0,0" />
          </g>
          <g
             transform="translate(147.2612,741.0882)"
             id="g290">
            <path
               inkscape:connector-curvature="0"
               id="path292"
               style="fill:#4dc4cc;fill-opacity:1;fill-rule:nonzero;stroke:none"
               d="m 0,0 c 0,-0.949 -0.766,-1.715 -1.714,-1.715 -0.949,0 -1.715,0.766 -1.715,1.715 0,0.946 0.766,1.714 1.715,1.714 C -0.766,1.714 0,0.946 0,0" />
          </g>
          <g
             transform="translate(157.5469,751.3719)"
             id="g294">
            <path
               inkscape:connector-curvature="0"
               id="path296"
               style="fill:#a3e1e5;fill-opacity:1;fill-rule:nonzero;stroke:none"
               d="m 0,0 c 0,-0.947 -0.767,-1.714 -1.714,-1.714 -0.948,0 -1.714,0.767 -1.714,1.714 0,0.949 0.766,1.714 1.714,1.714 C -0.767,1.714 0,0.949 0,0" />
          </g>
          <g
             transform="translate(193.5455,751.3719)"
             id="g298">
            <path
               inkscape:connector-curvature="0"
               id="path300"
               style="fill:#4dc4cc;fill-opacity:1;fill-rule:nonzero;stroke:none"
               d="m 0,0 c 0,-0.947 -0.768,-1.714 -1.715,-1.714 -0.947,0 -1.714,0.767 -1.714,1.714 0,0.949 0.767,1.714 1.714,1.714 C -0.768,1.714 0,0.949 0,0" />
          </g>
          <g
             transform="translate(193.5455,741.0882)"
             id="g302">
            <path
               inkscape:connector-curvature="0"
               id="path304"
               style="fill:#4dc4cc;fill-opacity:1;fill-rule:nonzero;stroke:none"
               d="m 0,0 c 0,-0.947 -0.768,-1.714 -1.715,-1.714 -0.947,0 -1.714,0.767 -1.714,1.714 0,0.949 0.767,1.714 1.714,1.714 C -0.768,1.714 0,0.949 0,0" />
          </g>
          <g
             transform="translate(193.5455,756.515)"
             id="g306">
            <path
               inkscape:connector-curvature="0"
               id="path308"
               style="fill:#80d07b;fill-opacity:1;fill-rule:nonzero;stroke:none"
               d="m 0,0 c 0,-0.948 -0.768,-1.714 -1.715,-1.714 -0.947,0 -1.714,0.766 -1.714,1.714 0,0.947 0.767,1.715 1.714,1.715 C -0.768,1.715 0,0.947 0,0" />
          </g>
          <g
             transform="translate(157.5469,756.515)"
             id="g310">
            <path
               inkscape:connector-curvature="0"
               id="path312"
               style="fill:#80d07b;fill-opacity:1;fill-rule:nonzero;stroke:none"
               d="m 0,0 c 0,-0.948 -0.767,-1.714 -1.714,-1.714 -0.948,0 -1.714,0.766 -1.714,1.714 0,0.947 0.766,1.715 1.714,1.715 C -0.767,1.715 0,0.947 0,0" />
          </g>
          <g
             transform="translate(183.2603,761.6586)"
             id="g314">
            <path
               inkscape:connector-curvature="0"
               id="path316"
               style="fill:#4dc4cc;fill-opacity:1;fill-rule:nonzero;stroke:none"
               d="m 0,0 c 0,-0.948 -0.767,-1.714 -1.714,-1.714 -0.949,0 -1.715,0.766 -1.715,1.714 0,0.947 0.766,1.714 1.715,1.714 C -0.767,1.714 0,0.947 0,0" />
          </g>
          <g
             transform="translate(157.5469,761.6586)"
             id="g318">
            <path
               inkscape:connector-curvature="0"
               id="path320"
               style="fill:#a3e1e5;fill-opacity:1;fill-rule:nonzero;stroke:none"
               d="m 0,0 c 0,-0.948 -0.767,-1.714 -1.714,-1.714 -0.948,0 -1.714,0.766 -1.714,1.714 0,0.947 0.766,1.714 1.714,1.714 C -0.767,1.714 0,0.947 0,0" />
          </g>
          <g
             transform="translate(183.2603,766.8003)"
             id="g322">
            <path
               inkscape:connector-curvature="0"
               id="path324"
               style="fill:#a3e1e5;fill-opacity:1;fill-rule:nonzero;stroke:none"
               d="m 0,0 c 0,-0.947 -0.767,-1.714 -1.714,-1.714 -0.949,0 -1.715,0.767 -1.715,1.714 0,0.948 0.766,1.714 1.715,1.714 C -0.767,1.714 0,0.948 0,0" />
          </g>
          <g
             transform="translate(157.5469,782.2286)"
             id="g326">
            <path
               inkscape:connector-curvature="0"
               id="path328"
               style="fill:#4dc4cc;fill-opacity:1;fill-rule:nonzero;stroke:none"
               d="m 0,0 c 0,-0.948 -0.767,-1.715 -1.714,-1.715 -0.948,0 -1.714,0.767 -1.714,1.715 0,0.948 0.766,1.714 1.714,1.714 C -0.767,1.714 0,0.948 0,0" />
          </g>
          <g
             transform="translate(172.9746,787.3708)"
             id="g330">
            <path
               inkscape:connector-curvature="0"
               id="path332"
               style="fill:#a3e1e5;fill-opacity:1;fill-rule:nonzero;stroke:none"
               d="m 0,0 c 0,-0.946 -0.766,-1.714 -1.714,-1.714 -0.948,0 -1.715,0.768 -1.715,1.714 0,0.948 0.767,1.715 1.715,1.715 C -0.766,1.715 0,0.948 0,0" />
          </g>
          <g
             transform="translate(157.5469,787.3708)"
             id="g334">
            <path
               inkscape:connector-curvature="0"
               id="path336"
               style="fill:#a3e1e5;fill-opacity:1;fill-rule:nonzero;stroke:none"
               d="m 0,0 c 0,-0.946 -0.767,-1.714 -1.714,-1.714 -0.948,0 -1.714,0.768 -1.714,1.714 0,0.948 0.766,1.715 1.714,1.715 C -0.767,1.715 0,0.948 0,0" />
          </g>
          <g
             transform="translate(172.9746,792.5148)"
             id="g338">
            <path
               inkscape:connector-curvature="0"
               id="path340"
               style="fill:#80d07b;fill-opacity:1;fill-rule:nonzero;stroke:none"
               d="m 0,0 c 0,-0.949 -0.766,-1.715 -1.714,-1.715 -0.948,0 -1.715,0.766 -1.715,1.715 0,0.946 0.767,1.714 1.715,1.714 C -0.766,1.714 0,0.946 0,0" />
          </g>
          <g
             transform="translate(167.8316,792.5148)"
             id="g342">
            <path
               inkscape:connector-curvature="0"
               id="path344"
               style="fill:#4dc4cc;fill-opacity:1;fill-rule:nonzero;stroke:none"
               d="m 0,0 c 0,-0.949 -0.766,-1.715 -1.713,-1.715 -0.948,0 -1.715,0.766 -1.715,1.715 0,0.946 0.767,1.714 1.715,1.714 C -0.766,1.714 0,0.946 0,0" />
          </g>
          <g
             transform="translate(167.8316,797.6561)"
             id="g346">
            <path
               inkscape:connector-curvature="0"
               id="path348"
               style="fill:#a3e1e5;fill-opacity:1;fill-rule:nonzero;stroke:none"
               d="m 0,0 c 0,-0.948 -0.766,-1.714 -1.713,-1.714 -0.948,0 -1.715,0.766 -1.715,1.714 0,0.947 0.767,1.714 1.715,1.714 C -0.766,1.714 0,0.947 0,0" />
          </g>
          <g
             transform="translate(69.1087,765.4183)"
             id="g350">
            <path
               inkscape:connector-curvature="0"
               id="path352"
               style="fill:#4f4c4d;fill-opacity:1;fill-rule:nonzero;stroke:none"
               d="m 0,0 c -0.983,-0.335 -2.843,-0.795 -4.703,-0.795 -2.572,0 -4.431,0.648 -5.728,1.882 -1.274,1.233 -1.985,3.072 -1.985,5.142 0.021,4.681 3.429,7.357 8.047,7.357 1.818,0 3.22,-0.356 3.909,-0.669 l -0.669,-2.571 c -0.772,0.357 -1.714,0.606 -3.26,0.606 -2.656,0 -4.682,-1.484 -4.682,-4.556 0,-2.926 1.839,-4.619 4.451,-4.619 0.711,0 1.296,0.083 1.547,0.187 V 4.932 H -5.246 V 7.42 H 0 Z" />
          </g>
          <g
             transform="translate(77.8061,771.0418)"
             id="g354">
            <path
               inkscape:connector-curvature="0"
               id="path356"
               style="fill:#4f4c4d;fill-opacity:1;fill-rule:nonzero;stroke:none"
               d="M 0,0 C 0,0.773 -0.334,2.068 -1.798,2.068 -3.136,2.068 -3.678,0.835 -3.762,0 Z m -3.741,-2.174 c 0.084,-1.318 1.401,-1.944 2.884,-1.944 1.087,0 1.964,0.146 2.822,0.439 l 0.418,-2.153 c -1.046,-0.439 -2.32,-0.648 -3.7,-0.648 -3.469,0 -5.455,2.007 -5.455,5.204 0,2.591 1.609,5.454 5.163,5.454 3.303,0 4.556,-2.571 4.556,-5.099 0,-0.544 -0.064,-1.024 -0.104,-1.253 z" />
          </g>
          <g
             transform="translate(82.657,771.731)"
             id="g358">
            <path
               inkscape:connector-curvature="0"
               id="path360"
               style="fill:#4f4c4d;fill-opacity:1;fill-rule:nonzero;stroke:none"
               d="M 0,0 C 0,1.274 -0.042,2.34 -0.083,3.26 H 2.675 L 2.822,1.839 h 0.064 c 0.417,0.668 1.441,1.65 3.155,1.65 2.089,0 3.657,-1.399 3.657,-4.41 v -6.04 H 6.521 v 5.664 c 0,1.317 -0.459,2.215 -1.609,2.215 -0.877,0 -1.4,-0.605 -1.629,-1.191 C 3.198,-0.481 3.178,-0.774 3.178,-1.066 V -6.961 H 0 Z" />
          </g>
          <g
             transform="translate(97.604,769.8917)"
             id="g362">
            <path
               inkscape:connector-curvature="0"
               id="path364"
               style="fill:#4f4c4d;fill-opacity:1;fill-rule:nonzero;stroke:none"
               d="m 0,0 c 0,-1.757 0.73,-3.073 2.089,-3.073 1.255,0 2.028,1.233 2.028,3.093 0,1.506 -0.584,3.052 -2.028,3.052 C 0.585,3.072 0,1.504 0,0 m 7.398,0.105 c 0,-3.742 -2.655,-5.455 -5.391,-5.455 -2.99,0 -5.289,1.964 -5.289,5.266 0,3.324 2.174,5.435 5.477,5.435 3.113,0 5.203,-2.153 5.203,-5.246" />
          </g>
          <g
             transform="translate(106.9691,771.731)"
             id="g366">
            <path
               inkscape:connector-curvature="0"
               id="path368"
               style="fill:#4f4c4d;fill-opacity:1;fill-rule:nonzero;stroke:none"
               d="M 0,0 C 0,1.274 -0.041,2.34 -0.084,3.26 H 2.613 L 2.738,1.881 h 0.063 c 0.438,0.669 1.359,1.631 3.093,1.631 1.338,0 2.362,-0.691 2.802,-1.757 h 0.041 c 0.397,0.543 0.837,0.962 1.338,1.254 0.564,0.315 1.191,0.503 1.944,0.503 1.964,0 3.447,-1.381 3.447,-4.453 v -6.02 h -3.092 v 5.56 c 0,1.484 -0.481,2.341 -1.505,2.341 C 10.116,0.94 9.615,0.438 9.386,-0.168 9.323,-0.397 9.279,-0.712 9.279,-0.982 V -6.961 H 6.186 v 5.748 C 6.186,0.063 5.728,0.94 4.703,0.94 3.888,0.94 3.408,0.313 3.219,-0.188 3.115,-0.44 3.094,-0.732 3.094,-1.004 V -6.961 H 0 Z" />
          </g>
          <path
             inkscape:connector-curvature="0"
             id="path370"
             style="fill:#4f4c4d;fill-opacity:1;fill-rule:nonzero;stroke:none"
             d="m 124.948,774.991 h 3.177 V 764.77 h -3.177 z m 3.282,2.843 c 0,-0.878 -0.649,-1.589 -1.714,-1.589 -1.004,0 -1.653,0.711 -1.653,1.589 0,0.898 0.67,1.588 1.694,1.588 1.024,0 1.651,-0.69 1.673,-1.588" />
          <g
             transform="translate(138.3466,765.0421)"
             id="g372">
            <path
               inkscape:connector-curvature="0"
               id="path374"
               style="fill:#4f4c4d;fill-opacity:1;fill-rule:nonzero;stroke:none"
               d="m 0,0 c -0.564,-0.272 -1.629,-0.48 -2.842,-0.48 -3.303,0 -5.413,2.027 -5.413,5.224 0,2.989 2.048,5.434 5.851,5.434 0.836,0 1.757,-0.145 2.425,-0.397 L -0.48,7.419 c -0.375,0.168 -0.941,0.314 -1.778,0.314 -1.67,0 -2.758,-1.191 -2.737,-2.863 0,-1.861 1.253,-2.863 2.801,-2.863 0.753,0 1.339,0.125 1.819,0.334 z" />
          </g>
          <g
             transform="translate(140.0832,767.5298)"
             id="g376">
            <path
               inkscape:connector-curvature="0"
               id="path378"
               style="fill:#4f4c4d;fill-opacity:1;fill-rule:nonzero;stroke:none"
               d="m 0,0 c 0.585,-0.356 1.797,-0.753 2.738,-0.753 0.962,0 1.358,0.314 1.358,0.836 0,0.543 -0.313,0.794 -1.484,1.192 -2.131,0.71 -2.946,1.86 -2.925,3.072 0,1.922 1.63,3.366 4.158,3.366 1.192,0 2.237,-0.292 2.864,-0.607 L 6.166,4.911 C 5.706,5.162 4.806,5.496 3.95,5.496 3.176,5.496 2.738,5.182 2.738,4.682 2.738,4.181 3.135,3.928 4.389,3.489 6.333,2.821 7.127,1.818 7.148,0.333 c 0,-1.922 -1.484,-3.322 -4.41,-3.322 -1.337,0 -2.53,0.314 -3.303,0.731 z" />
          </g>
        </g>
      </g>
      <text
         id="text382"
         style="font-variant:normal;font-weight:normal;font-stretch:normal;font-size:13.22999954px;font-family:'Myriad Pro';-inkscape-font-specification:MyriadPro-Regular;writing-mode:lr-tb;fill:#4dc4cc;fill-opacity:1;fill-rule:nonzero;stroke:none"
         transform="matrix(1,0,0,-1,94.7955,750.0618)">
        <tspan
           id="tspan380"
           sodipodi:role="line"
           y="0"
           x="0 7.6866298 16.087681 24.541651 28.72233 36.157589 44.55864">england</tspan>
      </text>
    </g>
  </g>
</svg>
